<?xml version="1.0" encoding="UTF-8"?>
<svg xmlns="http://www.w3.org/2000/svg" xmlns:xlink="http://www.w3.org/1999/xlink" width="675pt" height="112.499997pt" viewBox="0 0 675 112.499997" version="1.2">
<defs>
<clipPath id="clip1">
  <path d="M 1.492188 0 L 673.503906 0 L 673.503906 112.003906 L 1.492188 112.003906 Z M 1.492188 0 "/>
</clipPath>
<clipPath id="clip2">
  <path d="M 368.335938 4.503906 L 389.285156 4.503906 L 389.285156 107.925781 L 368.335938 107.925781 Z M 368.335938 4.503906 "/>
</clipPath>
<clipPath id="clip3">
  <path d="M 286.125 4.503906 L 307.328125 4.503906 L 307.328125 107.925781 L 286.125 107.925781 Z M 286.125 4.503906 "/>
</clipPath>
<clipPath id="clip4">
  <path d="M 517 50.121094 L 538 50.121094 L 538 62 L 517 62 Z M 517 50.121094 "/>
</clipPath>
<clipPath id="clip5">
  <path d="M 393.5 54 L 518 54 L 518 58 L 393.5 58 Z M 393.5 54 "/>
</clipPath>
<clipPath id="clip6">
  <path d="M 537 54 L 662.304688 54 L 662.304688 58 L 537 58 Z M 537 54 "/>
</clipPath>
<clipPath id="clip7">
  <path d="M 137 50.121094 L 158 50.121094 L 158 62 L 137 62 Z M 137 50.121094 "/>
</clipPath>
<clipPath id="clip8">
  <path d="M 12.695312 54 L 138 54 L 138 58 L 12.695312 58 Z M 12.695312 54 "/>
</clipPath>
<clipPath id="clip9">
  <path d="M 157 54 L 281.5 54 L 281.5 58 L 157 58 Z M 157 54 "/>
</clipPath>
</defs>
<g id="surface1">
<g clip-path="url(#clip1)" clip-rule="nonzero">
<path style=" stroke:none;fill-rule:nonzero;fill:rgb(100%,100%,100%);fill-opacity:1;" d="M 1.492188 0 L 673.507812 0 L 673.507812 119.46875 L 1.492188 119.46875 Z M 1.492188 0 "/>
<path style=" stroke:none;fill-rule:nonzero;fill:rgb(100%,100%,100%);fill-opacity:1;" d="M 1.492188 0 L 673.507812 0 L 673.507812 112.003906 L 1.492188 112.003906 Z M 1.492188 0 "/>
<path style=" stroke:none;fill-rule:nonzero;fill:rgb(100%,100%,100%);fill-opacity:1;" d="M 1.492188 0 L 673.507812 0 L 673.507812 112.003906 L 1.492188 112.003906 Z M 1.492188 0 "/>
</g>
<path style=" stroke:none;fill-rule:nonzero;fill:rgb(17.649841%,17.649841%,26.669312%);fill-opacity:1;" d="M 368.332031 70.5625 C 368.511719 70.5625 368.601562 70.746094 368.601562 71.113281 C 368.601562 71.476562 368.511719 71.660156 368.332031 71.660156 L 358.066406 71.660156 C 357.082031 71.660156 356.25 71.6875 355.578125 71.746094 C 354.910156 71.8125 354.363281 71.84375 353.941406 71.84375 C 352.953125 71.84375 352.109375 71.613281 351.40625 71.15625 C 350.710938 70.695312 349.855469 69.855469 348.84375 68.632812 C 347.835938 67.414062 346.046875 65.0625 343.480469 61.578125 C 343.175781 61.144531 342.824219 60.671875 342.421875 60.15625 C 342.027344 59.632812 341.585938 59.035156 341.097656 58.367188 L 329.085938 42.226562 L 327.070312 44.242188 L 327.070312 64.238281 C 327.070312 66.128906 327.222656 67.503906 327.523438 68.363281 C 327.832031 69.222656 328.429688 69.800781 329.3125 70.109375 C 330.199219 70.410156 331.621094 70.5625 333.578125 70.5625 C 333.820312 70.5625 333.945312 70.746094 333.945312 71.113281 C 333.945312 71.476562 333.820312 71.660156 333.578125 71.660156 C 331.558594 71.660156 329.96875 71.628906 328.804688 71.5625 L 321.933594 71.476562 L 315.144531 71.5625 C 313.921875 71.628906 312.269531 71.660156 310.1875 71.660156 C 310.066406 71.660156 310.007812 71.476562 310.007812 71.113281 C 310.007812 70.746094 310.066406 70.5625 310.1875 70.5625 C 312.148438 70.5625 313.585938 70.410156 314.5 70.109375 C 315.417969 69.800781 316.042969 69.203125 316.382812 68.320312 C 316.71875 67.433594 316.890625 66.070312 316.890625 64.238281 L 316.890625 21.769531 C 316.890625 19.9375 316.71875 18.597656 316.382812 17.738281 C 316.042969 16.886719 315.429688 16.289062 314.542969 15.953125 C 313.65625 15.613281 312.269531 15.445312 310.371094 15.445312 C 310.191406 15.445312 310.101562 15.261719 310.101562 14.894531 C 310.101562 14.53125 310.191406 14.347656 310.371094 14.347656 L 315.242188 14.441406 C 318.046875 14.566406 320.277344 14.625 321.933594 14.625 C 323.761719 14.625 326.085938 14.566406 328.902344 14.441406 L 333.578125 14.347656 C 333.757812 14.347656 333.847656 14.53125 333.847656 14.894531 C 333.847656 15.261719 333.757812 15.445312 333.578125 15.445312 C 331.683594 15.445312 330.285156 15.628906 329.398438 15.996094 C 328.515625 16.359375 327.902344 16.992188 327.566406 17.878906 C 327.234375 18.761719 327.070312 20.121094 327.070312 21.953125 L 327.070312 41.398438 L 344.308594 23.792969 C 346.082031 22.023438 346.96875 20.402344 346.96875 18.9375 C 346.96875 17.832031 346.476562 16.972656 345.492188 16.359375 C 344.515625 15.753906 343.140625 15.445312 341.367188 15.445312 C 341.1875 15.445312 341.097656 15.261719 341.097656 14.894531 C 341.097656 14.53125 341.1875 14.347656 341.367188 14.347656 L 345.6875 14.441406 C 348.371094 14.566406 350.875 14.625 353.195312 14.625 C 355.703125 14.625 358.304688 14.566406 360.996094 14.441406 L 365.121094 14.347656 C 365.308594 14.347656 365.402344 14.53125 365.402344 14.894531 C 365.402344 15.261719 365.308594 15.445312 365.121094 15.445312 C 362.304688 15.445312 359.21875 16.257812 355.859375 17.878906 C 352.496094 19.496094 349.4375 21.652344 346.6875 24.34375 L 336.324219 34.890625 L 349.898438 53.226562 C 353.871094 58.914062 356.851562 62.941406 358.84375 65.292969 C 360.828125 67.640625 362.433594 69.109375 363.65625 69.6875 C 364.878906 70.269531 366.4375 70.5625 368.332031 70.5625 Z M 368.332031 70.5625 "/>
<path style=" stroke:none;fill-rule:nonzero;fill:rgb(17.649841%,17.649841%,26.669312%);fill-opacity:1;" d="M 309.546875 97.46875 C 308.410156 97.46875 307.398438 97.203125 306.507812 96.671875 C 305.617188 96.140625 304.929688 95.417969 304.449219 94.503906 C 303.96875 93.59375 303.730469 92.597656 303.730469 91.523438 C 303.730469 90.257812 304.042969 89.179688 304.675781 88.277344 C 305.316406 87.375 306.132812 86.695312 307.132812 86.242188 C 308.128906 85.789062 309.152344 85.5625 310.191406 85.5625 C 311.355469 85.5625 312.378906 85.839844 313.265625 86.382812 C 314.148438 86.929688 314.820312 87.652344 315.289062 88.546875 C 315.761719 89.441406 316 90.386719 316 91.390625 C 316 92.507812 315.703125 93.53125 315.117188 94.460938 C 314.527344 95.390625 313.742188 96.121094 312.757812 96.660156 C 311.773438 97.199219 310.703125 97.46875 309.546875 97.46875 Z M 310.160156 97.015625 C 310.84375 97.015625 311.457031 96.820312 312.003906 96.421875 C 312.546875 96.023438 312.972656 95.441406 313.273438 94.679688 C 313.582031 93.910156 313.738281 92.992188 313.738281 91.921875 C 313.738281 90.792969 313.566406 89.785156 313.21875 88.902344 C 312.882812 88.015625 312.386719 87.316406 311.734375 86.8125 C 311.085938 86.3125 310.328125 86.058594 309.460938 86.058594 C 308.347656 86.058594 307.488281 86.480469 306.886719 87.320312 C 306.28125 88.160156 305.980469 89.335938 305.980469 90.84375 C 305.980469 92.027344 306.160156 93.089844 306.519531 94.03125 C 306.886719 94.964844 307.382812 95.699219 308.015625 96.230469 C 308.648438 96.753906 309.363281 97.015625 310.160156 97.015625 Z M 310.160156 97.015625 "/>
<path style=" stroke:none;fill-rule:nonzero;fill:rgb(17.649841%,17.649841%,26.669312%);fill-opacity:1;" d="M 326.058594 97.039062 C 326.09375 97.039062 326.113281 97.074219 326.113281 97.144531 C 326.113281 97.21875 326.09375 97.253906 326.058594 97.253906 C 325.742188 97.253906 325.488281 97.246094 325.304688 97.230469 L 324.207031 97.21875 L 322.785156 97.230469 C 322.574219 97.246094 322.292969 97.253906 321.941406 97.253906 C 321.90625 97.253906 321.890625 97.21875 321.890625 97.144531 C 321.890625 97.074219 321.90625 97.039062 321.941406 97.039062 C 322.378906 97.039062 322.601562 96.910156 322.601562 96.648438 C 322.601562 96.515625 322.550781 96.390625 322.460938 96.285156 L 320.359375 93.601562 L 320.015625 93.914062 L 320.015625 95.765625 C 320.015625 96.257812 320.082031 96.589844 320.21875 96.769531 C 320.363281 96.949219 320.625 97.039062 321.003906 97.039062 C 321.054688 97.039062 321.082031 97.074219 321.082031 97.144531 C 321.082031 97.21875 321.054688 97.253906 321.003906 97.253906 C 320.683594 97.253906 320.425781 97.246094 320.230469 97.230469 L 319.164062 97.21875 L 318.066406 97.230469 C 317.875 97.246094 317.625 97.253906 317.308594 97.253906 C 317.28125 97.253906 317.265625 97.21875 317.265625 97.144531 C 317.265625 97.074219 317.28125 97.039062 317.308594 97.039062 C 317.691406 97.039062 317.949219 96.949219 318.085938 96.769531 C 318.230469 96.589844 318.300781 96.257812 318.300781 95.765625 L 318.300781 86.425781 C 318.300781 85.996094 318.261719 85.691406 318.183594 85.511719 C 318.101562 85.324219 317.960938 85.230469 317.761719 85.230469 C 317.597656 85.230469 317.367188 85.300781 317.074219 85.433594 L 317.050781 85.433594 C 317.015625 85.433594 316.980469 85.402344 316.945312 85.335938 C 316.917969 85.269531 316.917969 85.226562 316.945312 85.21875 L 319.625 83.949219 L 319.710938 83.925781 C 319.777344 83.925781 319.84375 83.957031 319.90625 84.011719 C 319.976562 84.070312 320.015625 84.121094 320.015625 84.164062 L 320.015625 93.480469 L 321.714844 91.832031 C 322.039062 91.539062 322.203125 91.238281 322.203125 90.929688 C 322.203125 90.773438 322.140625 90.644531 322.019531 90.542969 C 321.894531 90.433594 321.722656 90.378906 321.5 90.378906 C 321.472656 90.378906 321.457031 90.34375 321.457031 90.273438 C 321.457031 90.195312 321.472656 90.152344 321.5 90.152344 C 321.851562 90.152344 322.128906 90.160156 322.332031 90.175781 L 323.773438 90.195312 L 325.121094 90.175781 C 325.292969 90.160156 325.53125 90.152344 325.832031 90.152344 C 325.875 90.152344 325.898438 90.195312 325.898438 90.273438 C 325.898438 90.34375 325.875 90.378906 325.832031 90.378906 C 325.308594 90.378906 324.703125 90.515625 324.023438 90.777344 C 323.347656 91.035156 322.738281 91.417969 322.203125 91.921875 L 321.535156 92.535156 L 324.054688 95.765625 C 324.40625 96.207031 324.742188 96.527344 325.066406 96.734375 C 325.394531 96.9375 325.726562 97.039062 326.058594 97.039062 Z M 326.058594 97.039062 "/>
<path style=" stroke:none;fill-rule:nonzero;fill:rgb(17.649841%,17.649841%,26.669312%);fill-opacity:1;" d="M 334.996094 97.039062 C 335.039062 97.039062 335.058594 97.074219 335.058594 97.144531 C 335.058594 97.21875 335.039062 97.253906 334.996094 97.253906 C 334.671875 97.253906 334.414062 97.246094 334.21875 97.230469 L 333.152344 97.21875 L 332.054688 97.230469 C 331.863281 97.246094 331.613281 97.253906 331.300781 97.253906 C 331.269531 97.253906 331.257812 97.21875 331.257812 97.144531 C 331.257812 97.074219 331.269531 97.039062 331.300781 97.039062 C 331.679688 97.039062 331.9375 96.949219 332.074219 96.769531 C 332.21875 96.589844 332.289062 96.257812 332.289062 95.765625 L 332.289062 93.117188 C 332.289062 92.457031 332.167969 91.96875 331.925781 91.652344 C 331.679688 91.328125 331.300781 91.167969 330.78125 91.167969 C 330.484375 91.167969 330.183594 91.226562 329.867188 91.347656 C 329.558594 91.472656 329.289062 91.636719 329.058594 91.84375 L 329.058594 95.765625 C 329.058594 96.257812 329.125 96.589844 329.261719 96.769531 C 329.40625 96.949219 329.667969 97.039062 330.050781 97.039062 C 330.097656 97.039062 330.125 97.074219 330.125 97.144531 C 330.125 97.21875 330.097656 97.253906 330.050781 97.253906 C 329.726562 97.253906 329.46875 97.246094 329.273438 97.230469 L 328.207031 97.21875 L 327.109375 97.230469 C 326.921875 97.246094 326.667969 97.253906 326.355469 97.253906 C 326.324219 97.253906 326.3125 97.21875 326.3125 97.144531 C 326.3125 97.074219 326.324219 97.039062 326.355469 97.039062 C 326.734375 97.039062 326.992188 96.949219 327.128906 96.769531 C 327.273438 96.589844 327.34375 96.257812 327.34375 95.765625 L 327.34375 86.425781 C 327.34375 85.996094 327.304688 85.691406 327.226562 85.511719 C 327.144531 85.324219 327.007812 85.230469 326.808594 85.230469 C 326.640625 85.230469 326.410156 85.300781 326.117188 85.433594 L 326.097656 85.433594 C 326.058594 85.433594 326.023438 85.402344 325.988281 85.335938 C 325.960938 85.269531 325.960938 85.226562 325.988281 85.21875 L 328.671875 83.949219 L 328.757812 83.925781 C 328.820312 83.925781 328.886719 83.957031 328.949219 84.011719 C 329.019531 84.070312 329.058594 84.121094 329.058594 84.164062 L 329.058594 91.445312 C 329.925781 90.441406 330.859375 89.9375 331.847656 89.9375 C 332.507812 89.9375 333.035156 90.152344 333.421875 90.574219 C 333.808594 91 334.003906 91.550781 334.003906 92.234375 L 334.003906 95.765625 C 334.003906 96.257812 334.070312 96.589844 334.207031 96.769531 C 334.351562 96.949219 334.613281 97.039062 334.996094 97.039062 Z M 334.996094 97.039062 "/>
<path style=" stroke:none;fill-rule:nonzero;fill:rgb(17.649841%,17.649841%,26.669312%);fill-opacity:1;" d="M 335.988281 97.253906 C 335.957031 97.253906 335.945312 97.21875 335.945312 97.144531 C 335.945312 97.074219 335.957031 97.039062 335.988281 97.039062 C 336.367188 97.039062 336.625 96.949219 336.761719 96.769531 C 336.90625 96.589844 336.980469 96.257812 336.980469 95.765625 L 337 86.425781 C 337 85.996094 336.957031 85.691406 336.871094 85.511719 C 336.789062 85.324219 336.65625 85.230469 336.460938 85.230469 C 336.300781 85.230469 336.066406 85.300781 335.761719 85.433594 L 335.75 85.433594 C 335.707031 85.433594 335.667969 85.402344 335.644531 85.335938 C 335.613281 85.269531 335.609375 85.226562 335.632812 85.21875 L 338.335938 83.949219 L 338.410156 83.925781 C 338.46875 83.925781 338.53125 83.957031 338.605469 84.011719 C 338.683594 84.070312 338.722656 84.121094 338.722656 84.164062 L 338.722656 95.765625 C 338.722656 96.257812 338.789062 96.589844 338.917969 96.769531 C 339.050781 96.949219 339.3125 97.039062 339.695312 97.039062 C 339.742188 97.039062 339.769531 97.074219 339.769531 97.144531 C 339.769531 97.21875 339.742188 97.253906 339.695312 97.253906 C 339.390625 97.253906 339.148438 97.246094 338.960938 97.230469 L 337.839844 97.21875 L 336.742188 97.230469 C 336.554688 97.246094 336.300781 97.253906 335.988281 97.253906 Z M 335.988281 97.253906 "/>
<path style=" stroke:none;fill-rule:nonzero;fill:rgb(17.649841%,17.649841%,26.669312%);fill-opacity:1;" d="M 348.386719 90.152344 C 348.414062 90.152344 348.429688 90.195312 348.429688 90.273438 C 348.429688 90.34375 348.414062 90.378906 348.386719 90.378906 C 348 90.378906 347.660156 90.550781 347.375 90.886719 C 347.085938 91.226562 346.824219 91.710938 346.589844 92.339844 L 344.550781 97.769531 C 343.898438 99.484375 343.273438 100.691406 342.675781 101.378906 C 342.085938 102.070312 341.429688 102.414062 340.707031 102.414062 C 340.339844 102.414062 340.058594 102.339844 339.867188 102.1875 C 339.664062 102.035156 339.5625 101.8125 339.5625 101.519531 C 339.5625 101.238281 339.648438 101.023438 339.820312 100.871094 C 339.996094 100.726562 340.203125 100.65625 340.445312 100.65625 C 340.582031 100.65625 340.699219 100.671875 340.792969 100.710938 C 340.882812 100.746094 340.996094 100.808594 341.125 100.894531 C 341.363281 101.050781 341.582031 101.132812 341.792969 101.132812 C 342.074219 101.132812 342.324219 101.023438 342.546875 100.808594 C 342.777344 100.59375 343.015625 100.238281 343.257812 99.742188 C 343.5 99.246094 343.796875 98.539062 344.140625 97.621094 L 341.203125 91.683594 C 340.933594 91.160156 340.722656 90.808594 340.566406 90.636719 C 340.414062 90.464844 340.230469 90.378906 340.003906 90.378906 C 339.96875 90.378906 339.953125 90.34375 339.953125 90.273438 C 339.953125 90.195312 339.96875 90.152344 340.003906 90.152344 C 340.351562 90.152344 340.613281 90.160156 340.800781 90.175781 L 341.566406 90.195312 L 342.839844 90.175781 C 343.03125 90.160156 343.292969 90.152344 343.625 90.152344 C 343.667969 90.152344 343.691406 90.195312 343.691406 90.273438 C 343.691406 90.34375 343.667969 90.378906 343.625 90.378906 C 343.308594 90.378906 343.074219 90.410156 342.925781 90.464844 C 342.78125 90.515625 342.710938 90.601562 342.710938 90.722656 C 342.710938 90.828125 342.746094 90.949219 342.816406 91.089844 L 344.992188 95.527344 L 346.09375 92.328125 C 346.199219 92.007812 346.253906 91.722656 346.253906 91.46875 C 346.253906 91.121094 346.15625 90.859375 345.964844 90.671875 C 345.769531 90.476562 345.488281 90.378906 345.121094 90.378906 C 345.09375 90.378906 345.078125 90.34375 345.078125 90.273438 C 345.078125 90.195312 345.09375 90.152344 345.121094 90.152344 C 345.453125 90.152344 345.703125 90.160156 345.875 90.175781 L 346.976562 90.195312 L 347.707031 90.175781 C 347.859375 90.160156 348.085938 90.152344 348.386719 90.152344 Z M 348.386719 90.152344 "/>
<path style=" stroke:none;fill-rule:nonzero;fill:rgb(17.649841%,17.649841%,26.669312%);fill-opacity:1;" d="M 357.503906 97.039062 C 357.539062 97.039062 357.558594 97.074219 357.558594 97.144531 C 357.558594 97.21875 357.539062 97.253906 357.503906 97.253906 C 357.1875 97.253906 356.9375 97.246094 356.75 97.230469 L 355.652344 97.21875 L 354.585938 97.230469 C 354.390625 97.246094 354.132812 97.253906 353.808594 97.253906 C 353.773438 97.253906 353.753906 97.21875 353.753906 97.144531 C 353.753906 97.074219 353.773438 97.039062 353.808594 97.039062 C 354.1875 97.039062 354.449219 96.949219 354.585938 96.769531 C 354.71875 96.589844 354.789062 96.257812 354.789062 95.765625 L 354.789062 93.117188 C 354.789062 92.457031 354.664062 91.96875 354.421875 91.652344 C 354.1875 91.328125 353.8125 91.167969 353.304688 91.167969 C 353.007812 91.167969 352.703125 91.226562 352.386719 91.347656 C 352.078125 91.472656 351.804688 91.636719 351.570312 91.84375 L 351.570312 95.765625 C 351.570312 96.257812 351.636719 96.589844 351.785156 96.769531 C 351.925781 96.949219 352.183594 97.039062 352.558594 97.039062 C 352.601562 97.039062 352.625 97.074219 352.625 97.144531 C 352.625 97.21875 352.601562 97.253906 352.558594 97.253906 C 352.242188 97.253906 351.992188 97.246094 351.804688 97.230469 L 350.707031 97.21875 L 349.617188 97.230469 C 349.4375 97.246094 349.191406 97.253906 348.875 97.253906 C 348.832031 97.253906 348.808594 97.21875 348.808594 97.144531 C 348.808594 97.074219 348.832031 97.039062 348.875 97.039062 C 349.246094 97.039062 349.503906 96.949219 349.640625 96.769531 C 349.773438 96.589844 349.84375 96.257812 349.84375 95.765625 L 349.84375 92.308594 C 349.84375 91.929688 349.796875 91.652344 349.703125 91.476562 C 349.609375 91.300781 349.46875 91.210938 349.273438 91.210938 C 349.0625 91.210938 348.769531 91.296875 348.390625 91.46875 L 348.359375 91.46875 C 348.320312 91.46875 348.292969 91.441406 348.273438 91.382812 C 348.253906 91.316406 348.261719 91.277344 348.28125 91.261719 L 350.835938 90.011719 C 350.90625 89.988281 350.949219 89.96875 350.964844 89.96875 C 351.101562 89.96875 351.230469 90.105469 351.351562 90.367188 C 351.472656 90.636719 351.546875 90.992188 351.570312 91.445312 C 352.414062 90.441406 353.347656 89.9375 354.371094 89.9375 C 355.03125 89.9375 355.550781 90.152344 355.933594 90.574219 C 356.320312 91 356.511719 91.550781 356.511719 92.234375 L 356.511719 95.765625 C 356.511719 96.257812 356.582031 96.589844 356.71875 96.769531 C 356.859375 96.949219 357.121094 97.039062 357.503906 97.039062 Z M 357.503906 97.039062 "/>
<path style=" stroke:none;fill-rule:nonzero;fill:rgb(17.649841%,17.649841%,26.669312%);fill-opacity:1;" d="M 360.316406 88.160156 C 359.964844 88.160156 359.6875 88.0625 359.488281 87.871094 C 359.292969 87.671875 359.199219 87.390625 359.199219 87.027344 C 359.199219 86.714844 359.296875 86.464844 359.5 86.273438 C 359.707031 86.082031 359.980469 85.984375 360.316406 85.984375 C 360.664062 85.984375 360.925781 86.078125 361.105469 86.265625 C 361.289062 86.445312 361.382812 86.699219 361.382812 87.027344 C 361.382812 87.390625 361.289062 87.671875 361.105469 87.871094 C 360.925781 88.0625 360.664062 88.160156 360.316406 88.160156 Z M 358.5625 97.253906 C 358.519531 97.253906 358.496094 97.21875 358.496094 97.144531 C 358.496094 97.074219 358.519531 97.039062 358.5625 97.039062 C 358.933594 97.039062 359.191406 96.949219 359.328125 96.769531 C 359.460938 96.589844 359.53125 96.257812 359.53125 95.765625 L 359.53125 92.46875 C 359.53125 92.054688 359.488281 91.757812 359.402344 91.574219 C 359.316406 91.390625 359.175781 91.296875 358.980469 91.296875 C 358.824219 91.296875 358.597656 91.367188 358.304688 91.5 L 358.28125 91.5 C 358.230469 91.5 358.191406 91.46875 358.164062 91.402344 C 358.140625 91.332031 358.148438 91.292969 358.183594 91.285156 L 360.964844 89.992188 L 361.019531 89.96875 C 361.082031 89.96875 361.140625 90.003906 361.203125 90.066406 C 361.265625 90.125 361.296875 90.179688 361.296875 90.230469 L 361.296875 90.636719 C 361.269531 91.128906 361.253906 91.726562 361.253906 92.4375 L 361.253906 95.765625 C 361.253906 96.257812 361.324219 96.589844 361.472656 96.769531 C 361.613281 96.949219 361.871094 97.039062 362.246094 97.039062 C 362.289062 97.039062 362.3125 97.074219 362.3125 97.144531 C 362.3125 97.21875 362.289062 97.253906 362.246094 97.253906 C 361.929688 97.253906 361.679688 97.246094 361.492188 97.230469 L 360.394531 97.21875 L 359.304688 97.230469 C 359.125 97.246094 358.878906 97.253906 358.5625 97.253906 Z M 358.5625 97.253906 "/>
<path style=" stroke:none;fill-rule:nonzero;fill:rgb(17.649841%,17.649841%,26.669312%);fill-opacity:1;" d="M 372.042969 97.039062 C 372.078125 97.039062 372.097656 97.074219 372.097656 97.144531 C 372.097656 97.21875 372.078125 97.253906 372.042969 97.253906 C 371.726562 97.253906 371.476562 97.246094 371.289062 97.230469 L 370.191406 97.21875 L 369.125 97.230469 C 368.929688 97.246094 368.671875 97.253906 368.347656 97.253906 C 368.3125 97.253906 368.296875 97.21875 368.296875 97.144531 C 368.296875 97.074219 368.3125 97.039062 368.347656 97.039062 C 368.730469 97.039062 368.988281 96.949219 369.125 96.769531 C 369.257812 96.589844 369.328125 96.257812 369.328125 95.765625 L 369.328125 93.117188 C 369.328125 92.457031 369.207031 91.96875 368.964844 91.652344 C 368.726562 91.328125 368.351562 91.167969 367.84375 91.167969 C 367.546875 91.167969 367.242188 91.226562 366.925781 91.347656 C 366.617188 91.472656 366.34375 91.636719 366.109375 91.84375 L 366.109375 95.765625 C 366.109375 96.257812 366.179688 96.589844 366.324219 96.769531 C 366.464844 96.949219 366.726562 97.039062 367.097656 97.039062 C 367.140625 97.039062 367.164062 97.074219 367.164062 97.144531 C 367.164062 97.21875 367.140625 97.253906 367.097656 97.253906 C 366.78125 97.253906 366.53125 97.246094 366.34375 97.230469 L 365.246094 97.21875 L 364.15625 97.230469 C 363.976562 97.246094 363.730469 97.253906 363.414062 97.253906 C 363.371094 97.253906 363.351562 97.21875 363.351562 97.144531 C 363.351562 97.074219 363.371094 97.039062 363.414062 97.039062 C 363.785156 97.039062 364.042969 96.949219 364.179688 96.769531 C 364.3125 96.589844 364.382812 96.257812 364.382812 95.765625 L 364.382812 92.308594 C 364.382812 91.929688 364.335938 91.652344 364.246094 91.476562 C 364.148438 91.300781 364.007812 91.210938 363.8125 91.210938 C 363.601562 91.210938 363.308594 91.296875 362.929688 91.46875 L 362.898438 91.46875 C 362.859375 91.46875 362.832031 91.441406 362.8125 91.382812 C 362.796875 91.316406 362.800781 91.277344 362.820312 91.261719 L 365.375 90.011719 C 365.445312 89.988281 365.488281 89.96875 365.503906 89.96875 C 365.640625 89.96875 365.769531 90.105469 365.890625 90.367188 C 366.015625 90.636719 366.085938 90.992188 366.109375 91.445312 C 366.953125 90.441406 367.886719 89.9375 368.910156 89.9375 C 369.570312 89.9375 370.089844 90.152344 370.472656 90.574219 C 370.859375 91 371.054688 91.550781 371.054688 92.234375 L 371.054688 95.765625 C 371.054688 96.257812 371.121094 96.589844 371.257812 96.769531 C 371.402344 96.949219 371.660156 97.039062 372.042969 97.039062 Z M 372.042969 97.039062 "/>
<path style=" stroke:none;fill-rule:nonzero;fill:rgb(17.649841%,17.649841%,26.669312%);fill-opacity:1;" d="M 366.9375 78.277344 L 302.652344 78.277344 L 302.652344 79.621094 L 372.53125 79.621094 L 372.53125 78.277344 Z M 366.9375 78.277344 "/>
<g clip-path="url(#clip2)" clip-rule="nonzero">
<path style=" stroke:none;fill-rule:nonzero;fill:rgb(17.649841%,17.649841%,26.669312%);fill-opacity:1;" d="M 369.75 107.9375 L 381.957031 103.46875 L 381.957031 71.359375 C 381.957031 66.265625 383.960938 61.476562 387.609375 57.875 L 389.285156 56.21875 L 387.609375 54.566406 C 383.960938 50.964844 381.957031 46.175781 381.957031 41.082031 L 381.957031 8.972656 L 369.75 4.507812 L 368.101562 8.894531 L 377.21875 12.230469 L 377.21875 41.082031 C 377.21875 46.675781 379.160156 51.972656 382.734375 56.21875 C 379.160156 60.472656 377.21875 65.769531 377.21875 71.359375 L 377.21875 100.214844 L 368.101562 103.546875 L 369.75 107.9375 "/>
</g>
<g clip-path="url(#clip3)" clip-rule="nonzero">
<path style=" stroke:none;fill-rule:nonzero;fill:rgb(17.649841%,17.649841%,26.669312%);fill-opacity:1;" d="M 305.664062 107.9375 L 293.457031 103.46875 L 293.457031 71.359375 C 293.457031 66.265625 291.449219 61.476562 287.800781 57.875 L 286.125 56.21875 L 287.800781 54.566406 C 291.449219 50.964844 293.457031 46.175781 293.457031 41.082031 L 293.457031 8.972656 L 305.664062 4.507812 L 307.308594 8.894531 L 298.195312 12.230469 L 298.195312 41.082031 C 298.195312 46.675781 296.25 51.972656 292.679688 56.21875 C 296.25 60.472656 298.195312 65.769531 298.195312 71.359375 L 298.195312 100.214844 L 307.308594 103.546875 L 305.664062 107.9375 "/>
</g>
<g clip-path="url(#clip4)" clip-rule="nonzero">
<path style=" stroke:none;fill-rule:nonzero;fill:rgb(17.649841%,17.649841%,26.669312%);fill-opacity:1;" d="M 531.070312 55.570312 C 529.921875 54.851562 529.667969 53.429688 530.550781 52.453125 C 531.03125 51.917969 531.984375 51.808594 532.675781 52.367188 C 533.242188 52.828125 533.082031 54.085938 532.15625 54.070312 C 533.375 54.59375 534.039062 53.949219 534.261719 53.621094 C 534.753906 52.902344 534.667969 51.59375 533.433594 50.894531 C 532.113281 50.148438 530.4375 50.6875 529.707031 51.914062 C 528.964844 53.152344 529.175781 55.136719 530.894531 55.972656 C 531.011719 56.03125 531.132812 56.078125 531.261719 56.113281 C 531.132812 56.152344 531.011719 56.199219 530.894531 56.257812 C 529.175781 57.09375 528.964844 59.078125 529.707031 60.316406 C 530.4375 61.542969 532.113281 62.082031 533.433594 61.332031 C 534.667969 60.636719 534.753906 59.328125 534.261719 58.605469 C 534.039062 58.28125 533.375 57.636719 532.15625 58.160156 C 533.082031 58.144531 533.242188 59.402344 532.675781 59.859375 C 531.984375 60.421875 531.03125 60.3125 530.550781 59.777344 C 529.667969 58.800781 529.921875 57.375 531.070312 56.65625 C 531.785156 56.210938 532.003906 56.277344 532.648438 56.113281 C 532.066406 55.964844 531.785156 56.015625 531.070312 55.570312 Z M 524.757812 55.570312 C 525.90625 54.851562 526.160156 53.429688 525.277344 52.453125 C 524.796875 51.917969 523.84375 51.808594 523.152344 52.367188 C 522.585938 52.828125 522.746094 54.085938 523.671875 54.070312 C 522.453125 54.59375 521.789062 53.949219 521.566406 53.621094 C 521.074219 52.902344 521.160156 51.59375 522.394531 50.894531 C 523.714844 50.148438 525.390625 50.6875 526.121094 51.914062 C 526.863281 53.152344 526.652344 55.136719 524.933594 55.972656 C 524.816406 56.03125 524.695312 56.078125 524.566406 56.113281 C 524.695312 56.152344 524.816406 56.199219 524.933594 56.257812 C 526.652344 57.09375 526.863281 59.078125 526.121094 60.316406 C 525.390625 61.542969 523.714844 62.082031 522.394531 61.332031 C 521.160156 60.636719 521.074219 59.328125 521.566406 58.605469 C 521.789062 58.28125 522.453125 57.636719 523.671875 58.160156 C 522.746094 58.144531 522.585938 59.402344 523.152344 59.859375 C 523.84375 60.421875 524.796875 60.3125 525.277344 59.777344 C 526.160156 58.800781 525.90625 57.375 524.757812 56.65625 C 524.042969 56.210938 523.824219 56.277344 523.179688 56.113281 C 523.761719 55.964844 524.042969 56.015625 524.757812 55.570312 Z M 524.785156 53.574219 C 524.480469 54.910156 523.660156 55.6875 522.957031 56.113281 C 523.660156 56.542969 524.480469 57.320312 524.785156 58.65625 C 523.785156 57.484375 521.28125 56.746094 518.988281 56.304688 C 518.632812 56.238281 518.269531 56.175781 517.902344 56.113281 C 518.269531 56.054688 518.632812 55.992188 518.988281 55.925781 C 521.28125 55.484375 523.785156 54.742188 524.785156 53.574219 Z M 529.957031 56.113281 C 529.101562 55.140625 528.433594 53.867188 527.914062 52.535156 C 527.394531 53.867188 526.726562 55.140625 525.871094 56.113281 C 526.726562 57.089844 527.394531 58.359375 527.914062 59.695312 C 528.433594 58.359375 529.101562 57.089844 529.957031 56.113281 Z M 531.042969 53.574219 C 531.347656 54.910156 532.167969 55.6875 532.875 56.113281 C 532.167969 56.542969 531.347656 57.320312 531.042969 58.65625 C 532.042969 57.484375 534.546875 56.746094 536.839844 56.304688 C 537.195312 56.238281 537.558594 56.175781 537.925781 56.113281 C 537.558594 56.054688 537.195312 55.992188 536.839844 55.925781 C 534.546875 55.484375 532.042969 54.742188 531.042969 53.574219 Z M 531.042969 53.574219 "/>
</g>
<g clip-path="url(#clip5)" clip-rule="nonzero">
<path style=" stroke:none;fill-rule:evenodd;fill:rgb(17.649841%,17.649841%,26.669312%);fill-opacity:1;" d="M 500.886719 54.550781 C 503.359375 55.269531 509.550781 55.726562 515.21875 55.996094 C 516.097656 56.039062 516.992188 56.078125 517.902344 56.113281 C 516.992188 56.152344 516.097656 56.191406 515.21875 56.234375 C 509.550781 56.503906 503.359375 56.960938 500.886719 57.679688 C 483.046875 56.855469 434.90625 56.378906 393.5 56.113281 C 434.90625 55.851562 483.050781 55.371094 500.886719 54.550781 Z M 500.886719 54.550781 "/>
</g>
<g clip-path="url(#clip6)" clip-rule="nonzero">
<path style=" stroke:none;fill-rule:evenodd;fill:rgb(17.649841%,17.649841%,26.669312%);fill-opacity:1;" d="M 554.941406 54.550781 C 552.46875 55.269531 546.277344 55.726562 540.609375 55.996094 C 539.734375 56.039062 538.835938 56.078125 537.925781 56.113281 C 538.835938 56.152344 539.734375 56.191406 540.609375 56.234375 C 546.277344 56.503906 552.46875 56.960938 554.941406 57.679688 C 572.78125 56.855469 620.921875 56.378906 662.328125 56.113281 C 620.921875 55.851562 572.777344 55.371094 554.941406 54.550781 Z M 554.941406 54.550781 "/>
</g>
<g clip-path="url(#clip7)" clip-rule="nonzero">
<path style=" stroke:none;fill-rule:nonzero;fill:rgb(17.649841%,17.649841%,26.669312%);fill-opacity:1;" d="M 150.265625 55.570312 C 149.113281 54.851562 148.863281 53.429688 149.742188 52.453125 C 150.222656 51.917969 151.175781 51.808594 151.867188 52.367188 C 152.433594 52.828125 152.273438 54.085938 151.351562 54.070312 C 152.566406 54.59375 153.230469 53.949219 153.453125 53.621094 C 153.945312 52.902344 153.859375 51.59375 152.628906 50.894531 C 151.304688 50.148438 149.628906 50.6875 148.898438 51.914062 C 148.160156 53.152344 148.367188 55.136719 150.085938 55.972656 C 150.203125 56.03125 150.328125 56.078125 150.453125 56.113281 C 150.328125 56.152344 150.203125 56.199219 150.085938 56.257812 C 148.367188 57.09375 148.160156 59.078125 148.898438 60.316406 C 149.628906 61.542969 151.304688 62.082031 152.628906 61.332031 C 153.859375 60.636719 153.945312 59.328125 153.453125 58.605469 C 153.230469 58.28125 152.566406 57.636719 151.351562 58.160156 C 152.273438 58.144531 152.433594 59.402344 151.867188 59.859375 C 151.175781 60.421875 150.222656 60.3125 149.742188 59.777344 C 148.863281 58.800781 149.113281 57.375 150.265625 56.65625 C 150.976562 56.210938 151.195312 56.277344 151.84375 56.113281 C 151.257812 55.964844 150.976562 56.015625 150.265625 55.570312 Z M 143.949219 55.570312 C 145.097656 54.851562 145.351562 53.429688 144.472656 52.453125 C 143.988281 51.917969 143.039062 51.808594 142.34375 52.367188 C 141.78125 52.828125 141.941406 54.085938 142.863281 54.070312 C 141.644531 54.59375 140.984375 53.949219 140.757812 53.621094 C 140.265625 52.902344 140.355469 51.59375 141.585938 50.894531 C 142.910156 50.148438 144.585938 50.6875 145.316406 51.914062 C 146.054688 53.152344 145.847656 55.136719 144.125 55.972656 C 144.007812 56.03125 143.886719 56.078125 143.757812 56.113281 C 143.886719 56.152344 144.007812 56.199219 144.125 56.257812 C 145.847656 57.09375 146.054688 59.078125 145.316406 60.316406 C 144.585938 61.542969 142.910156 62.082031 141.585938 61.332031 C 140.355469 60.636719 140.265625 59.328125 140.757812 58.605469 C 140.984375 58.28125 141.644531 57.636719 142.863281 58.160156 C 141.941406 58.144531 141.78125 59.402344 142.34375 59.859375 C 143.039062 60.421875 143.988281 60.3125 144.472656 59.777344 C 145.351562 58.800781 145.097656 57.375 143.949219 56.65625 C 143.234375 56.210938 143.019531 56.277344 142.371094 56.113281 C 142.953125 55.964844 143.234375 56.015625 143.949219 55.570312 Z M 143.980469 53.574219 C 143.675781 54.910156 142.855469 55.6875 142.148438 56.113281 C 142.855469 56.542969 143.675781 57.320312 143.980469 58.65625 C 142.976562 57.484375 140.472656 56.746094 138.179688 56.304688 C 137.824219 56.238281 137.460938 56.175781 137.09375 56.113281 C 137.460938 56.054688 137.824219 55.992188 138.179688 55.925781 C 140.472656 55.484375 142.976562 54.742188 143.980469 53.574219 Z M 149.148438 56.113281 C 148.292969 55.140625 147.625 53.867188 147.105469 52.535156 C 146.589844 53.867188 145.917969 55.140625 145.0625 56.113281 C 145.917969 57.089844 146.589844 58.359375 147.105469 59.695312 C 147.625 58.359375 148.292969 57.089844 149.148438 56.113281 Z M 150.234375 53.574219 C 150.539062 54.910156 151.359375 55.6875 152.066406 56.113281 C 151.359375 56.542969 150.539062 57.320312 150.234375 58.65625 C 151.234375 57.484375 153.742188 56.746094 156.035156 56.304688 C 156.390625 56.238281 156.75 56.175781 157.121094 56.113281 C 156.75 56.054688 156.390625 55.992188 156.035156 55.925781 C 153.742188 55.484375 151.234375 54.742188 150.234375 53.574219 Z M 150.234375 53.574219 "/>
</g>
<g clip-path="url(#clip8)" clip-rule="nonzero">
<path style=" stroke:none;fill-rule:evenodd;fill:rgb(17.649841%,17.649841%,26.669312%);fill-opacity:1;" d="M 120.082031 54.550781 C 122.554688 55.269531 128.742188 55.726562 134.410156 55.996094 C 135.289062 56.039062 136.183594 56.078125 137.09375 56.113281 C 136.183594 56.152344 135.289062 56.191406 134.410156 56.234375 C 128.746094 56.503906 122.554688 56.960938 120.082031 57.679688 C 102.242188 56.855469 54.097656 56.378906 12.695312 56.113281 C 54.097656 55.851562 102.242188 55.371094 120.082031 54.550781 Z M 120.082031 54.550781 "/>
</g>
<g clip-path="url(#clip9)" clip-rule="nonzero">
<path style=" stroke:none;fill-rule:evenodd;fill:rgb(17.649841%,17.649841%,26.669312%);fill-opacity:1;" d="M 174.132812 54.550781 C 171.660156 55.269531 165.46875 55.726562 159.804688 55.996094 C 158.925781 56.039062 158.027344 56.078125 157.117188 56.113281 C 158.027344 56.152344 158.925781 56.191406 159.804688 56.234375 C 165.46875 56.503906 171.660156 56.960938 174.132812 57.679688 C 191.972656 56.855469 240.117188 56.378906 281.519531 56.113281 C 240.117188 55.851562 191.96875 55.371094 174.132812 54.550781 Z M 174.132812 54.550781 "/>
</g>
</g>
</svg>
